<svg width="308" height="51" viewBox="0 0 308 51" fill="none" xmlns="http://www.w3.org/2000/svg">
<path d="M10.7219 44.8594C10.4094 47.9844 8.69063 49.6771 5.56563 49.9375C4.10729 49.9375 2.83125 49.4688 1.7375 48.5312C0.695836 47.5417 0.175003 46.3177 0.175003 44.8594V7.82812C0.227086 6.36979 0.773961 5.17188 1.81563 4.23438C2.85729 3.24479 4.10729 2.75 5.56563 2.75H9.39375H19.0031H38.3C38.6125 2.75 38.925 2.77604 39.2375 2.82812H39.7063C43.3521 2.93229 46.3469 3.76562 48.6906 5.32812C51.0344 6.89062 52.7271 8.6875 53.7688 10.7188C54.8104 12.6979 55.3313 14.7031 55.3313 16.7344C55.3313 18.8177 54.8104 20.875 53.7688 22.9062C52.7792 24.8854 51.0865 26.6562 48.6906 28.2188C46.3469 29.7812 43.3521 30.6146 39.7063 30.7188H25.9563C26.3729 33.3229 27.2323 35.25 28.5344 36.5C29.7844 37.75 31.3729 38.375 33.3 38.375H50.175C51.6333 38.4271 52.8313 38.974 53.7688 40.0156C54.7583 41.0573 55.2531 42.3073 55.2531 43.7656C55.201 45.1719 54.6802 46.3698 53.6906 47.3594C52.7531 48.2969 51.5813 48.7917 50.175 48.8438H31.8938C28.0396 48.8958 24.55 47.3854 21.425 44.3125C18.3 41.2396 16.399 37.5938 15.7219 33.375C14.7844 28.6875 14.3156 26.0573 14.3156 25.4844C14.3156 24.026 14.8104 22.8021 15.8 21.8125C16.8417 20.7708 18.0917 20.25 19.55 20.25H40.175C41.1646 20.1979 41.9719 19.9896 42.5969 19.625C43.274 19.2083 43.7688 18.7656 44.0813 18.2969C44.3938 17.776 44.55 17.2552 44.55 16.7344C44.55 16.2135 44.3938 15.7188 44.0813 15.25C43.7688 14.7292 43.274 14.2865 42.5969 13.9219C41.9719 13.5052 41.1646 13.2708 40.175 13.2188H19.0031H12.7531C11.399 13.2708 10.7219 13.9479 10.7219 15.25V44.8594ZM105.822 2.75C108.478 2.80208 110.848 3.63542 112.931 5.25C115.015 6.86458 116.681 8.79167 117.931 11.0312C119.233 13.2708 120.197 15.6406 120.822 18.1406C121.447 20.6406 121.759 23.1927 121.759 25.7969C121.759 29.2344 121.213 32.6198 120.119 35.9531C119.077 39.2344 117.332 42.151 114.884 44.7031C112.489 47.2552 109.468 48.6354 105.822 48.8438H78.5563C74.9104 48.6875 71.8635 47.3333 69.4156 44.7812C66.9677 42.2292 65.2229 39.2865 64.1813 35.9531C63.1917 32.6198 62.6969 29.2344 62.6969 25.7969C62.6969 22.3594 63.2177 19 64.2594 15.7188C65.301 12.3854 67.0198 9.44271 69.4156 6.89062C71.8635 4.28646 74.9104 2.90625 78.5563 2.75H80.0406H104.338H105.822ZM103.166 38.375C105.145 38.2708 106.785 37.5417 108.088 36.1875C109.442 34.7812 110.405 33.1667 110.978 31.3438C111.551 29.5208 111.838 27.6719 111.838 25.7969C111.838 23.9219 111.525 22.099 110.9 20.3281C110.327 18.5052 109.39 16.8906 108.088 15.4844C106.785 14.0781 105.145 13.3229 103.166 13.2188H80.9781C78.999 13.3229 77.3583 14.0781 76.0563 15.4844C74.7542 16.8906 73.7906 18.5052 73.1656 20.3281C72.5927 22.099 72.3063 23.9219 72.3063 25.7969C72.3063 27.6719 72.5927 29.5208 73.1656 31.3438C73.7385 33.1667 74.676 34.7812 75.9781 36.1875C77.3323 37.5417 78.999 38.2708 80.9781 38.375H103.166ZM146.938 0.640625C148.76 0.640625 150.531 0.953125 152.25 1.57812C154.021 2.20312 155.714 3.11458 157.328 4.3125C157.589 4.57292 157.875 4.83333 158.188 5.09375C158.448 4.83333 158.734 4.57292 159.047 4.3125C160.661 3.11458 162.328 2.20312 164.047 1.57812C165.818 0.953125 167.589 0.640625 169.359 0.640625C171.182 0.640625 172.953 0.953125 174.672 1.57812C176.443 2.20312 178.109 3.14062 179.672 4.39062C181.286 5.58854 182.693 7.20312 183.891 9.23438C185.141 11.2656 185.766 13.6875 185.766 16.5V44.7031C185.453 47.8281 183.734 49.5208 180.609 49.7812C179.151 49.7812 177.875 49.3125 176.781 48.375C175.74 47.3854 175.219 46.1615 175.219 44.7031V17.125C175.219 15.875 174.984 14.8333 174.516 14C174.047 13.1146 173.526 12.4375 172.953 11.9688C172.38 11.4479 171.781 11.0833 171.156 10.875C170.531 10.6146 169.906 10.4844 169.281 10.4844C168.656 10.4844 168.031 10.6146 167.406 10.875C166.833 11.0833 166.26 11.4479 165.688 11.9688C165.115 12.4375 164.594 13.1146 164.125 14C163.656 14.8333 163.396 15.875 163.344 17.125V44.7031C163.031 47.8281 161.312 49.5208 158.188 49.7812C156.729 49.7812 155.453 49.3125 154.359 48.375C153.318 47.3854 152.797 46.1615 152.797 44.7031V17.125C152.797 15.875 152.562 14.8333 152.094 14C151.625 13.1146 151.104 12.4375 150.531 11.9688C149.958 11.4479 149.359 11.0833 148.734 10.875C148.109 10.6146 147.484 10.4844 146.859 10.4844C146.234 10.4844 145.609 10.6146 144.984 10.875C144.411 11.0833 143.839 11.4479 143.266 11.9688C142.693 12.4375 142.172 13.1146 141.703 14C141.234 14.8333 140.974 15.875 140.922 17.125V44.7031C140.661 47.8281 138.969 49.5208 135.844 49.7812C134.385 49.7812 133.109 49.3125 132.016 48.375C130.974 47.3854 130.453 46.1615 130.453 44.7031V16.5C130.557 13.6875 131.208 11.2656 132.406 9.23438C133.604 7.20312 135.01 5.58854 136.625 4.39062C138.24 3.14062 139.906 2.20312 141.625 1.57812C143.396 0.953125 145.167 0.640625 146.938 0.640625ZM220.631 50.6406C217.923 50.6406 215.241 50.3281 212.584 49.7031C209.98 49.0781 207.48 48.1667 205.084 46.9688C202.689 45.7188 200.579 44.0781 198.756 42.0469C196.933 40.0156 195.944 37.5938 195.788 34.7812V31.5V6.57812C195.788 5.11979 196.308 3.92188 197.35 2.98438C198.444 1.99479 199.72 1.5 201.178 1.5C204.303 1.76042 205.996 3.45312 206.256 6.57812V32.3594C206.36 33.974 206.959 35.3281 208.053 36.4219C209.199 37.4635 210.449 38.2969 211.803 38.9219C213.209 39.5469 214.642 40.0156 216.1 40.3281C217.61 40.6406 219.121 40.7969 220.631 40.7969C222.142 40.7969 223.626 40.6406 225.084 40.3281C226.595 40.0156 228.027 39.5469 229.381 38.9219C230.788 38.2969 232.038 37.4635 233.131 36.4219C234.277 35.3281 234.902 33.974 235.006 32.3594V6.57812C235.006 5.11979 235.527 3.92188 236.569 2.98438C237.663 1.99479 238.939 1.5 240.397 1.5C243.522 1.76042 245.241 3.45312 245.553 6.57812V31.5V34.7812C245.397 37.5938 244.381 40.0156 242.506 42.0469C240.683 44.0781 238.574 45.7188 236.178 46.9688C233.782 48.1667 231.256 49.0781 228.6 49.7031C225.996 50.3281 223.34 50.6406 220.631 50.6406ZM306.591 7.98438C306.591 9.44271 306.07 10.6667 305.028 11.6562C304.039 12.6979 302.815 13.2188 301.356 13.2188H270.106C269.117 13.2708 268.283 13.5052 267.606 13.9219C266.981 14.2865 266.513 14.7292 266.2 15.25C265.888 15.7188 265.731 16.2135 265.731 16.7344C265.731 17.2552 265.888 17.776 266.2 18.2969C266.513 18.7656 266.981 19.2083 267.606 19.625C268.283 19.9896 269.117 20.1979 270.106 20.25H292.294C295.94 20.3542 298.934 21.2135 301.278 22.8281C303.674 24.3906 305.367 26.2135 306.356 28.2969C307.398 30.3281 307.919 32.4115 307.919 34.5469C307.919 36.6302 307.398 38.7135 306.356 40.7969C305.315 42.8281 303.622 44.651 301.278 46.2656C298.934 47.8281 295.94 48.6094 292.294 48.6094H291.825C291.513 48.6615 291.2 48.6875 290.888 48.6875H261.356C259.898 48.6875 258.648 48.1927 257.606 47.2031C256.617 46.1615 256.122 44.9115 256.122 43.4531C256.122 41.9948 256.643 40.7708 257.684 39.7812C258.674 38.7396 259.898 38.2188 261.356 38.2188H292.763C293.752 38.2708 294.559 38.0885 295.184 37.6719C295.861 37.2552 296.356 36.7865 296.669 36.2656C296.981 35.6927 297.138 35.1198 297.138 34.5469C297.138 34.1823 296.981 33.6875 296.669 33.0625C296.356 32.3854 295.861 31.8385 295.184 31.4219C294.559 31.0052 293.752 30.7708 292.763 30.7188H270.575C266.929 30.6146 263.908 29.7812 261.513 28.2188C259.169 26.6562 257.476 24.8854 256.434 22.9062C255.445 20.875 254.95 18.8177 254.95 16.7344C254.95 14.7031 255.471 12.6979 256.513 10.7188C257.554 8.6875 259.247 6.89062 261.591 5.32812C263.934 3.76562 266.929 2.93229 270.575 2.82812H271.044C271.356 2.77604 271.669 2.75 271.981 2.75H301.356C302.815 2.75 304.039 3.27083 305.028 4.3125C306.07 5.30208 306.591 6.52604 306.591 7.98438Z" fill="white"/>
</svg>
